<svg width="20" height="20" viewBox="0 0 20 20" fill="none" xmlns="http://www.w3.org/2000/svg">
<path d="M9.58242 5C11.24 5 12.8297 5.65848 14.0018 6.83058C15.1739 8.00269 15.8324 9.5924 15.8324 11.25C15.8324 12.9076 15.1739 14.4973 14.0018 15.6694C12.8297 16.8415 11.24 17.5 9.58242 17.5C7.92482 17.5 6.33511 16.8415 5.163 15.6694C3.9909 14.4973 3.33242 12.9076 3.33242 11.25C3.33242 9.5924 3.9909 8.00269 5.163 6.83058C6.33511 5.65848 7.92482 5 9.58242 5ZM9.58242 5.83333C8.14583 5.83333 6.76808 6.40402 5.75226 7.41984C4.73644 8.43566 4.16576 9.81341 4.16576 11.25C4.16576 12.6866 4.73644 14.0643 5.75226 15.0802C6.76808 16.096 8.14583 16.6667 9.58242 16.6667C11.019 16.6667 12.3968 16.096 13.4126 15.0802C14.4284 14.0643 14.9991 12.6866 14.9991 11.25C14.9991 9.81341 14.4284 8.43566 13.4126 7.41984C12.3968 6.40402 11.019 5.83333 9.58242 5.83333ZM9.16576 7.5H9.99909V11.1333L12.5408 12.3167L12.1908 13.075L9.16576 11.6667V7.5ZM12.7074 4.375L13.2408 3.75L16.4324 6.41667L15.8991 7.05L12.7074 4.375ZM6.45742 4.375L3.26576 7.05L2.73242 6.41667L5.92409 3.75L6.45742 4.375Z" fill="#DF3A3A"/>
</svg>
